<mxfile host="app.diagrams.net" modified="2023-07-07T06:46:36.295Z" agent="Mozilla/5.0 (Macintosh; Intel Mac OS X 10_15_7) AppleWebKit/537.36 (KHTML, like Gecko) Chrome/114.0.0.0 Safari/537.36" etag="pZ1bNsXcz-nXDgLkeQJw" version="21.5.2" type="github">
  <diagram id="C5RBs43oDa-KdzZeNtuy" name="Page-1">
    <mxGraphModel dx="2726" dy="2620" grid="1" gridSize="10" guides="1" tooltips="1" connect="1" arrows="1" fold="1" page="1" pageScale="1" pageWidth="827" pageHeight="1169" math="0" shadow="0">
      <root>
        <mxCell id="WIyWlLk6GJQsqaUBKTNV-0" />
        <mxCell id="WIyWlLk6GJQsqaUBKTNV-1" parent="WIyWlLk6GJQsqaUBKTNV-0" />
        <mxCell id="BLyfXcpBKMJjdkIK_ONK-147" value="" style="rounded=0;whiteSpace=wrap;html=1;fillColor=#F7F7F7;" parent="WIyWlLk6GJQsqaUBKTNV-1" vertex="1">
          <mxGeometry x="65" y="1" width="2425" height="730" as="geometry" />
        </mxCell>
        <mxCell id="BLyfXcpBKMJjdkIK_ONK-145" value="" style="rounded=0;whiteSpace=wrap;html=1;fillColor=#F7F7F7;strokeColor=#36393d;" parent="WIyWlLk6GJQsqaUBKTNV-1" vertex="1">
          <mxGeometry x="380" y="-569" width="1680" height="530" as="geometry" />
        </mxCell>
        <mxCell id="zkfFHV4jXpPFQw0GAbJ--0" value="FusePass" style="swimlane;fontStyle=2;align=center;verticalAlign=top;childLayout=stackLayout;horizontal=1;startSize=26;horizontalStack=0;resizeParent=1;resizeLast=0;collapsible=1;marginBottom=0;rounded=0;shadow=0;strokeWidth=1;fillColor=#d5e8d4;strokeColor=#82b366;fontSize=20;" parent="WIyWlLk6GJQsqaUBKTNV-1" vertex="1">
          <mxGeometry x="1270" y="20" width="260" height="90" as="geometry">
            <mxRectangle x="230" y="140" width="160" height="26" as="alternateBounds" />
          </mxGeometry>
        </mxCell>
        <mxCell id="zkfFHV4jXpPFQw0GAbJ--4" value="" style="line;html=1;strokeWidth=1;align=left;verticalAlign=middle;spacingTop=-1;spacingLeft=3;spacingRight=3;rotatable=0;labelPosition=right;points=[];portConstraint=eastwest;fillColor=#d5e8d4;strokeColor=#82b366;" parent="zkfFHV4jXpPFQw0GAbJ--0" vertex="1">
          <mxGeometry y="26" width="260" height="8" as="geometry" />
        </mxCell>
        <mxCell id="zkfFHV4jXpPFQw0GAbJ--5" value="FuseMode(): string" style="text;align=left;verticalAlign=top;spacingLeft=4;spacingRight=4;overflow=hidden;rotatable=0;points=[[0,0.5],[1,0.5]];portConstraint=eastwest;fontStyle=2;fillColor=#d5e8d4;strokeColor=#82b366;" parent="zkfFHV4jXpPFQw0GAbJ--0" vertex="1">
          <mxGeometry y="34" width="260" height="26" as="geometry" />
        </mxCell>
        <mxCell id="BLyfXcpBKMJjdkIK_ONK-0" value="Benefit(): int" style="text;align=left;verticalAlign=top;spacingLeft=4;spacingRight=4;overflow=hidden;rotatable=0;points=[[0,0.5],[1,0.5]];portConstraint=eastwest;fontStyle=2;fillColor=#d5e8d4;strokeColor=#82b366;" parent="zkfFHV4jXpPFQw0GAbJ--0" vertex="1">
          <mxGeometry y="60" width="260" height="26" as="geometry" />
        </mxCell>
        <mxCell id="BLyfXcpBKMJjdkIK_ONK-151" style="edgeStyle=orthogonalEdgeStyle;rounded=0;orthogonalLoop=1;jettySize=auto;html=1;exitX=0.5;exitY=0;exitDx=0;exitDy=0;endArrow=block;endFill=0;endSize=10;" parent="WIyWlLk6GJQsqaUBKTNV-1" source="zkfFHV4jXpPFQw0GAbJ--6" target="zkfFHV4jXpPFQw0GAbJ--0" edge="1">
          <mxGeometry relative="1" as="geometry" />
        </mxCell>
        <mxCell id="zkfFHV4jXpPFQw0GAbJ--6" value="InputFusePass" style="swimlane;fontStyle=2;align=center;verticalAlign=top;childLayout=stackLayout;horizontal=1;startSize=26;horizontalStack=0;resizeParent=1;resizeLast=0;collapsible=1;marginBottom=0;rounded=0;shadow=0;strokeWidth=1;fillColor=#d5e8d4;strokeColor=#82b366;fontSize=20;" parent="WIyWlLk6GJQsqaUBKTNV-1" vertex="1">
          <mxGeometry x="310" y="190" width="230" height="120" as="geometry">
            <mxRectangle x="130" y="380" width="160" height="26" as="alternateBounds" />
          </mxGeometry>
        </mxCell>
        <mxCell id="zkfFHV4jXpPFQw0GAbJ--9" value="" style="line;html=1;strokeWidth=1;align=left;verticalAlign=middle;spacingTop=-1;spacingLeft=3;spacingRight=3;rotatable=0;labelPosition=right;points=[];portConstraint=eastwest;fillColor=#d5e8d4;strokeColor=#82b366;" parent="zkfFHV4jXpPFQw0GAbJ--6" vertex="1">
          <mxGeometry y="26" width="230" height="8" as="geometry" />
        </mxCell>
        <mxCell id="BLyfXcpBKMJjdkIK_ONK-1" value="operator(InputFusePassCtx* ctx): void" style="text;align=left;verticalAlign=top;spacingLeft=4;spacingRight=4;overflow=hidden;rotatable=0;points=[[0,0.5],[1,0.5]];portConstraint=eastwest;fontStyle=2;fillColor=#d5e8d4;strokeColor=#82b366;" parent="zkfFHV4jXpPFQw0GAbJ--6" vertex="1">
          <mxGeometry y="34" width="230" height="26" as="geometry" />
        </mxCell>
        <mxCell id="BLyfXcpBKMJjdkIK_ONK-3" value="Benefit(): int" style="text;align=left;verticalAlign=top;spacingLeft=4;spacingRight=4;overflow=hidden;rotatable=0;points=[[0,0.5],[1,0.5]];portConstraint=eastwest;fontStyle=2;fillColor=#d5e8d4;strokeColor=#82b366;" parent="zkfFHV4jXpPFQw0GAbJ--6" vertex="1">
          <mxGeometry y="60" width="230" height="26" as="geometry" />
        </mxCell>
        <mxCell id="BLyfXcpBKMJjdkIK_ONK-2" value="FuseMode(): string" style="text;align=left;verticalAlign=top;spacingLeft=4;spacingRight=4;overflow=hidden;rotatable=0;points=[[0,0.5],[1,0.5]];portConstraint=eastwest;fontStyle=0;fillColor=#d5e8d4;strokeColor=#82b366;" parent="zkfFHV4jXpPFQw0GAbJ--6" vertex="1">
          <mxGeometry y="86" width="230" height="26" as="geometry" />
        </mxCell>
        <mxCell id="zkfFHV4jXpPFQw0GAbJ--16" value="" style="endArrow=block;endSize=10;endFill=0;shadow=0;strokeWidth=1;rounded=0;edgeStyle=elbowEdgeStyle;elbow=vertical;exitX=0.5;exitY=0;exitDx=0;exitDy=0;fillColor=#d5e8d4;strokeColor=#82b366;" parent="WIyWlLk6GJQsqaUBKTNV-1" source="BLyfXcpBKMJjdkIK_ONK-31" target="zkfFHV4jXpPFQw0GAbJ--0" edge="1">
          <mxGeometry width="160" relative="1" as="geometry">
            <mxPoint x="700" y="250" as="sourcePoint" />
            <mxPoint x="550" y="201" as="targetPoint" />
          </mxGeometry>
        </mxCell>
        <mxCell id="BLyfXcpBKMJjdkIK_ONK-14" style="edgeStyle=orthogonalEdgeStyle;rounded=0;orthogonalLoop=1;jettySize=auto;html=1;exitX=0.5;exitY=0;exitDx=0;exitDy=0;entryX=0.5;entryY=1;entryDx=0;entryDy=0;endArrow=block;endFill=0;endSize=10;fillColor=#d5e8d4;strokeColor=#82b366;" parent="WIyWlLk6GJQsqaUBKTNV-1" source="BLyfXcpBKMJjdkIK_ONK-4" target="zkfFHV4jXpPFQw0GAbJ--6" edge="1">
          <mxGeometry relative="1" as="geometry" />
        </mxCell>
        <mxCell id="BLyfXcpBKMJjdkIK_ONK-4" value="DefaultInputFusePass" style="swimlane;fontStyle=0;align=center;verticalAlign=top;childLayout=stackLayout;horizontal=1;startSize=26;horizontalStack=0;resizeParent=1;resizeLast=0;collapsible=1;marginBottom=0;rounded=0;shadow=0;strokeWidth=1;fillColor=#d5e8d4;strokeColor=#82b366;fontSize=20;" parent="WIyWlLk6GJQsqaUBKTNV-1" vertex="1">
          <mxGeometry x="110" y="390" width="270" height="90" as="geometry">
            <mxRectangle x="130" y="380" width="160" height="26" as="alternateBounds" />
          </mxGeometry>
        </mxCell>
        <mxCell id="BLyfXcpBKMJjdkIK_ONK-5" value="" style="line;html=1;strokeWidth=1;align=left;verticalAlign=middle;spacingTop=-1;spacingLeft=3;spacingRight=3;rotatable=0;labelPosition=right;points=[];portConstraint=eastwest;fillColor=#d5e8d4;strokeColor=#82b366;" parent="BLyfXcpBKMJjdkIK_ONK-4" vertex="1">
          <mxGeometry y="26" width="270" height="8" as="geometry" />
        </mxCell>
        <mxCell id="BLyfXcpBKMJjdkIK_ONK-6" value="operator(InputFusePassCtx* ctx): void" style="text;align=left;verticalAlign=top;spacingLeft=4;spacingRight=4;overflow=hidden;rotatable=0;points=[[0,0.5],[1,0.5]];portConstraint=eastwest;fontStyle=0;fillColor=#d5e8d4;strokeColor=#82b366;" parent="BLyfXcpBKMJjdkIK_ONK-4" vertex="1">
          <mxGeometry y="34" width="270" height="26" as="geometry" />
        </mxCell>
        <mxCell id="BLyfXcpBKMJjdkIK_ONK-7" value="Benefit(): int" style="text;align=left;verticalAlign=top;spacingLeft=4;spacingRight=4;overflow=hidden;rotatable=0;points=[[0,0.5],[1,0.5]];portConstraint=eastwest;fontStyle=0;fillColor=#d5e8d4;strokeColor=#82b366;" parent="BLyfXcpBKMJjdkIK_ONK-4" vertex="1">
          <mxGeometry y="60" width="270" height="26" as="geometry" />
        </mxCell>
        <mxCell id="BLyfXcpBKMJjdkIK_ONK-25" style="edgeStyle=orthogonalEdgeStyle;rounded=0;orthogonalLoop=1;jettySize=auto;html=1;exitX=0.5;exitY=0;exitDx=0;exitDy=0;entryX=0.5;entryY=1;entryDx=0;entryDy=0;endArrow=block;endFill=0;endSize=10;fillColor=#d5e8d4;strokeColor=#82b366;" parent="WIyWlLk6GJQsqaUBKTNV-1" source="BLyfXcpBKMJjdkIK_ONK-20" target="zkfFHV4jXpPFQw0GAbJ--6" edge="1">
          <mxGeometry relative="1" as="geometry" />
        </mxCell>
        <mxCell id="BLyfXcpBKMJjdkIK_ONK-20" value="CustomInputFusePass" style="swimlane;fontStyle=0;align=center;verticalAlign=top;childLayout=stackLayout;horizontal=1;startSize=26;horizontalStack=0;resizeParent=1;resizeLast=0;collapsible=1;marginBottom=0;rounded=0;shadow=0;strokeWidth=1;fillColor=#f8cecc;strokeColor=#b85450;fontSize=20;" parent="WIyWlLk6GJQsqaUBKTNV-1" vertex="1">
          <mxGeometry x="444" y="390" width="246" height="90" as="geometry">
            <mxRectangle x="130" y="380" width="160" height="26" as="alternateBounds" />
          </mxGeometry>
        </mxCell>
        <mxCell id="BLyfXcpBKMJjdkIK_ONK-21" value="" style="line;html=1;strokeWidth=1;align=left;verticalAlign=middle;spacingTop=-1;spacingLeft=3;spacingRight=3;rotatable=0;labelPosition=right;points=[];portConstraint=eastwest;" parent="BLyfXcpBKMJjdkIK_ONK-20" vertex="1">
          <mxGeometry y="26" width="246" height="8" as="geometry" />
        </mxCell>
        <mxCell id="BLyfXcpBKMJjdkIK_ONK-22" value="operator(InputFusePassCtx* ctx): void" style="text;align=left;verticalAlign=top;spacingLeft=4;spacingRight=4;overflow=hidden;rotatable=0;points=[[0,0.5],[1,0.5]];portConstraint=eastwest;fontStyle=0;fillColor=#f8cecc;strokeColor=#b85450;" parent="BLyfXcpBKMJjdkIK_ONK-20" vertex="1">
          <mxGeometry y="34" width="246" height="26" as="geometry" />
        </mxCell>
        <mxCell id="BLyfXcpBKMJjdkIK_ONK-23" value="Benefit(): int" style="text;align=left;verticalAlign=top;spacingLeft=4;spacingRight=4;overflow=hidden;rotatable=0;points=[[0,0.5],[1,0.5]];portConstraint=eastwest;fontStyle=0;fillColor=#f8cecc;strokeColor=#b85450;" parent="BLyfXcpBKMJjdkIK_ONK-20" vertex="1">
          <mxGeometry y="60" width="246" height="26" as="geometry" />
        </mxCell>
        <mxCell id="BLyfXcpBKMJjdkIK_ONK-31" value="LightwareFusePass" style="swimlane;fontStyle=2;align=center;verticalAlign=top;childLayout=stackLayout;horizontal=1;startSize=26;horizontalStack=0;resizeParent=1;resizeLast=0;collapsible=1;marginBottom=0;rounded=0;shadow=0;strokeWidth=1;fillColor=#d5e8d4;strokeColor=#82b366;fontSize=20;" parent="WIyWlLk6GJQsqaUBKTNV-1" vertex="1">
          <mxGeometry x="1260" y="190" width="280" height="120" as="geometry">
            <mxRectangle x="130" y="380" width="160" height="26" as="alternateBounds" />
          </mxGeometry>
        </mxCell>
        <mxCell id="BLyfXcpBKMJjdkIK_ONK-32" value="" style="line;html=1;strokeWidth=1;align=left;verticalAlign=middle;spacingTop=-1;spacingLeft=3;spacingRight=3;rotatable=0;labelPosition=right;points=[];portConstraint=eastwest;fillColor=#d5e8d4;strokeColor=#82b366;" parent="BLyfXcpBKMJjdkIK_ONK-31" vertex="1">
          <mxGeometry y="26" width="280" height="8" as="geometry" />
        </mxCell>
        <mxCell id="BLyfXcpBKMJjdkIK_ONK-33" value="operator(InputFusePassCtx* ctx): void" style="text;align=left;verticalAlign=top;spacingLeft=4;spacingRight=4;overflow=hidden;rotatable=0;points=[[0,0.5],[1,0.5]];portConstraint=eastwest;fontStyle=2;fillColor=#d5e8d4;strokeColor=#82b366;" parent="BLyfXcpBKMJjdkIK_ONK-31" vertex="1">
          <mxGeometry y="34" width="280" height="26" as="geometry" />
        </mxCell>
        <mxCell id="BLyfXcpBKMJjdkIK_ONK-34" value="Benefit(): int" style="text;align=left;verticalAlign=top;spacingLeft=4;spacingRight=4;overflow=hidden;rotatable=0;points=[[0,0.5],[1,0.5]];portConstraint=eastwest;fontStyle=2;fillColor=#d5e8d4;strokeColor=#82b366;" parent="BLyfXcpBKMJjdkIK_ONK-31" vertex="1">
          <mxGeometry y="60" width="280" height="26" as="geometry" />
        </mxCell>
        <mxCell id="BLyfXcpBKMJjdkIK_ONK-35" value="FuseMode(): string" style="text;align=left;verticalAlign=top;spacingLeft=4;spacingRight=4;overflow=hidden;rotatable=0;points=[[0,0.5],[1,0.5]];portConstraint=eastwest;fontStyle=2;fillColor=#d5e8d4;strokeColor=#82b366;" parent="BLyfXcpBKMJjdkIK_ONK-31" vertex="1">
          <mxGeometry y="86" width="280" height="26" as="geometry" />
        </mxCell>
        <mxCell id="BLyfXcpBKMJjdkIK_ONK-41" style="edgeStyle=orthogonalEdgeStyle;rounded=0;orthogonalLoop=1;jettySize=auto;html=1;exitX=0.5;exitY=0;exitDx=0;exitDy=0;endArrow=block;endFill=0;endSize=10;entryX=0.5;entryY=1;entryDx=0;entryDy=0;" parent="WIyWlLk6GJQsqaUBKTNV-1" source="BLyfXcpBKMJjdkIK_ONK-36" target="zkfFHV4jXpPFQw0GAbJ--0" edge="1">
          <mxGeometry relative="1" as="geometry">
            <mxPoint x="1210" y="140" as="targetPoint" />
          </mxGeometry>
        </mxCell>
        <mxCell id="BLyfXcpBKMJjdkIK_ONK-36" value="HeavyFusePass" style="swimlane;fontStyle=2;align=center;verticalAlign=top;childLayout=stackLayout;horizontal=1;startSize=26;horizontalStack=0;resizeParent=1;resizeLast=0;collapsible=1;marginBottom=0;rounded=0;shadow=0;strokeWidth=1;fillColor=#e1d5e7;strokeColor=#9673a6;fontSize=20;" parent="WIyWlLk6GJQsqaUBKTNV-1" vertex="1">
          <mxGeometry x="1730" y="190" width="250" height="120" as="geometry">
            <mxRectangle x="130" y="380" width="160" height="26" as="alternateBounds" />
          </mxGeometry>
        </mxCell>
        <mxCell id="BLyfXcpBKMJjdkIK_ONK-37" value="" style="line;html=1;strokeWidth=1;align=left;verticalAlign=middle;spacingTop=-1;spacingLeft=3;spacingRight=3;rotatable=0;labelPosition=right;points=[];portConstraint=eastwest;fillColor=#e1d5e7;strokeColor=#9673a6;" parent="BLyfXcpBKMJjdkIK_ONK-36" vertex="1">
          <mxGeometry y="26" width="250" height="8" as="geometry" />
        </mxCell>
        <mxCell id="BLyfXcpBKMJjdkIK_ONK-38" value="operator(HeavyFusePassCtx* ctx): void" style="text;align=left;verticalAlign=top;spacingLeft=4;spacingRight=4;overflow=hidden;rotatable=0;points=[[0,0.5],[1,0.5]];portConstraint=eastwest;fontStyle=2;fillColor=#e1d5e7;strokeColor=#9673a6;" parent="BLyfXcpBKMJjdkIK_ONK-36" vertex="1">
          <mxGeometry y="34" width="250" height="26" as="geometry" />
        </mxCell>
        <mxCell id="BLyfXcpBKMJjdkIK_ONK-39" value="Benefit(): int" style="text;align=left;verticalAlign=top;spacingLeft=4;spacingRight=4;overflow=hidden;rotatable=0;points=[[0,0.5],[1,0.5]];portConstraint=eastwest;fontStyle=2;fillColor=#e1d5e7;strokeColor=#9673a6;" parent="BLyfXcpBKMJjdkIK_ONK-36" vertex="1">
          <mxGeometry y="60" width="250" height="26" as="geometry" />
        </mxCell>
        <mxCell id="BLyfXcpBKMJjdkIK_ONK-40" value="FuseMode(): string" style="text;align=left;verticalAlign=top;spacingLeft=4;spacingRight=4;overflow=hidden;rotatable=0;points=[[0,0.5],[1,0.5]];portConstraint=eastwest;fontStyle=2;fillColor=#e1d5e7;strokeColor=#9673a6;" parent="BLyfXcpBKMJjdkIK_ONK-36" vertex="1">
          <mxGeometry y="86" width="250" height="26" as="geometry" />
        </mxCell>
        <mxCell id="BLyfXcpBKMJjdkIK_ONK-42" value="&lt;font style=&quot;font-size: 30px;&quot;&gt;默认数据结构&lt;/font&gt;" style="rounded=0;whiteSpace=wrap;html=1;fillColor=#d5e8d4;strokeColor=#82b366;fontSize=20;" parent="WIyWlLk6GJQsqaUBKTNV-1" vertex="1">
          <mxGeometry x="2141" y="-520" width="340" height="90" as="geometry" />
        </mxCell>
        <mxCell id="BLyfXcpBKMJjdkIK_ONK-44" value="&lt;font style=&quot;font-size: 30px;&quot;&gt;用户自定义数据结构&lt;/font&gt;" style="rounded=0;whiteSpace=wrap;html=1;fillColor=#fff2cc;strokeColor=#d6b656;fontSize=20;" parent="WIyWlLk6GJQsqaUBKTNV-1" vertex="1">
          <mxGeometry x="2141" y="-400" width="340" height="90" as="geometry" />
        </mxCell>
        <mxCell id="BLyfXcpBKMJjdkIK_ONK-45" value="&lt;font style=&quot;font-size: 30px;&quot;&gt;未来可能新增的数据结构&lt;/font&gt;" style="rounded=0;whiteSpace=wrap;html=1;fillColor=#e1d5e7;strokeColor=#9673a6;fontSize=20;" parent="WIyWlLk6GJQsqaUBKTNV-1" vertex="1">
          <mxGeometry x="2141" y="-270" width="340" height="90" as="geometry" />
        </mxCell>
        <mxCell id="BLyfXcpBKMJjdkIK_ONK-94" style="edgeStyle=orthogonalEdgeStyle;rounded=0;orthogonalLoop=1;jettySize=auto;html=1;exitX=0.5;exitY=0;exitDx=0;exitDy=0;entryX=0.5;entryY=1;entryDx=0;entryDy=0;endSize=10;endArrow=block;endFill=0;fillColor=#d5e8d4;strokeColor=#82b366;" parent="WIyWlLk6GJQsqaUBKTNV-1" source="BLyfXcpBKMJjdkIK_ONK-46" target="BLyfXcpBKMJjdkIK_ONK-31" edge="1">
          <mxGeometry relative="1" as="geometry" />
        </mxCell>
        <mxCell id="BLyfXcpBKMJjdkIK_ONK-46" value="HorizontalFusePass" style="swimlane;fontStyle=2;align=center;verticalAlign=top;childLayout=stackLayout;horizontal=1;startSize=26;horizontalStack=0;resizeParent=1;resizeLast=0;collapsible=1;marginBottom=0;rounded=0;shadow=0;strokeWidth=1;fillColor=#d5e8d4;strokeColor=#82b366;fontSize=20;" parent="WIyWlLk6GJQsqaUBKTNV-1" vertex="1">
          <mxGeometry x="791.5" y="390" width="260" height="120" as="geometry">
            <mxRectangle x="130" y="380" width="160" height="26" as="alternateBounds" />
          </mxGeometry>
        </mxCell>
        <mxCell id="BLyfXcpBKMJjdkIK_ONK-47" value="" style="line;html=1;strokeWidth=1;align=left;verticalAlign=middle;spacingTop=-1;spacingLeft=3;spacingRight=3;rotatable=0;labelPosition=right;points=[];portConstraint=eastwest;fillColor=#d5e8d4;strokeColor=#82b366;" parent="BLyfXcpBKMJjdkIK_ONK-46" vertex="1">
          <mxGeometry y="26" width="260" height="8" as="geometry" />
        </mxCell>
        <mxCell id="BLyfXcpBKMJjdkIK_ONK-48" value="operator(LightwareFusePassCtx* ctx): void" style="text;align=left;verticalAlign=top;spacingLeft=4;spacingRight=4;overflow=hidden;rotatable=0;points=[[0,0.5],[1,0.5]];portConstraint=eastwest;fontStyle=2;fillColor=#d5e8d4;strokeColor=#82b366;" parent="BLyfXcpBKMJjdkIK_ONK-46" vertex="1">
          <mxGeometry y="34" width="260" height="26" as="geometry" />
        </mxCell>
        <mxCell id="BLyfXcpBKMJjdkIK_ONK-49" value="Benefit(): int" style="text;align=left;verticalAlign=top;spacingLeft=4;spacingRight=4;overflow=hidden;rotatable=0;points=[[0,0.5],[1,0.5]];portConstraint=eastwest;fontStyle=2;fillColor=#d5e8d4;strokeColor=#82b366;" parent="BLyfXcpBKMJjdkIK_ONK-46" vertex="1">
          <mxGeometry y="60" width="260" height="26" as="geometry" />
        </mxCell>
        <mxCell id="BLyfXcpBKMJjdkIK_ONK-50" value="FuseMode(): string" style="text;align=left;verticalAlign=top;spacingLeft=4;spacingRight=4;overflow=hidden;rotatable=0;points=[[0,0.5],[1,0.5]];portConstraint=eastwest;fontStyle=0;fillColor=#d5e8d4;strokeColor=#82b366;" parent="BLyfXcpBKMJjdkIK_ONK-46" vertex="1">
          <mxGeometry y="86" width="260" height="26" as="geometry" />
        </mxCell>
        <mxCell id="BLyfXcpBKMJjdkIK_ONK-59" style="edgeStyle=orthogonalEdgeStyle;rounded=0;orthogonalLoop=1;jettySize=auto;html=1;exitX=0.5;exitY=0;exitDx=0;exitDy=0;entryX=0.5;entryY=1;entryDx=0;entryDy=0;endArrow=block;endFill=0;endSize=10;" parent="WIyWlLk6GJQsqaUBKTNV-1" source="BLyfXcpBKMJjdkIK_ONK-51" target="BLyfXcpBKMJjdkIK_ONK-46" edge="1">
          <mxGeometry relative="1" as="geometry" />
        </mxCell>
        <mxCell id="BLyfXcpBKMJjdkIK_ONK-51" value="DefaultHorizontalFusePass" style="swimlane;fontStyle=0;align=center;verticalAlign=top;childLayout=stackLayout;horizontal=1;startSize=26;horizontalStack=0;resizeParent=1;resizeLast=0;collapsible=1;marginBottom=0;rounded=0;shadow=0;strokeWidth=1;fillColor=#d5e8d4;strokeColor=#82b366;fontSize=20;" parent="WIyWlLk6GJQsqaUBKTNV-1" vertex="1">
          <mxGeometry x="393.5" y="610" width="310" height="90" as="geometry">
            <mxRectangle x="130" y="380" width="160" height="26" as="alternateBounds" />
          </mxGeometry>
        </mxCell>
        <mxCell id="BLyfXcpBKMJjdkIK_ONK-52" value="" style="line;html=1;strokeWidth=1;align=left;verticalAlign=middle;spacingTop=-1;spacingLeft=3;spacingRight=3;rotatable=0;labelPosition=right;points=[];portConstraint=eastwest;fillColor=#d5e8d4;strokeColor=#82b366;" parent="BLyfXcpBKMJjdkIK_ONK-51" vertex="1">
          <mxGeometry y="26" width="310" height="8" as="geometry" />
        </mxCell>
        <mxCell id="BLyfXcpBKMJjdkIK_ONK-53" value="operator(LightwareFusePassCtx* ctx): void" style="text;align=left;verticalAlign=top;spacingLeft=4;spacingRight=4;overflow=hidden;rotatable=0;points=[[0,0.5],[1,0.5]];portConstraint=eastwest;fontStyle=0;fillColor=#d5e8d4;strokeColor=#82b366;" parent="BLyfXcpBKMJjdkIK_ONK-51" vertex="1">
          <mxGeometry y="34" width="310" height="26" as="geometry" />
        </mxCell>
        <mxCell id="BLyfXcpBKMJjdkIK_ONK-54" value="Benefit(): int" style="text;align=left;verticalAlign=top;spacingLeft=4;spacingRight=4;overflow=hidden;rotatable=0;points=[[0,0.5],[1,0.5]];portConstraint=eastwest;fontStyle=0;fillColor=#d5e8d4;strokeColor=#82b366;" parent="BLyfXcpBKMJjdkIK_ONK-51" vertex="1">
          <mxGeometry y="60" width="310" height="26" as="geometry" />
        </mxCell>
        <mxCell id="BLyfXcpBKMJjdkIK_ONK-60" style="edgeStyle=orthogonalEdgeStyle;rounded=0;orthogonalLoop=1;jettySize=auto;html=1;exitX=0.5;exitY=0;exitDx=0;exitDy=0;endSize=10;endArrow=block;endFill=0;entryX=0.5;entryY=1;entryDx=0;entryDy=0;" parent="WIyWlLk6GJQsqaUBKTNV-1" source="BLyfXcpBKMJjdkIK_ONK-55" target="BLyfXcpBKMJjdkIK_ONK-46" edge="1">
          <mxGeometry relative="1" as="geometry">
            <mxPoint x="950" y="550" as="targetPoint" />
          </mxGeometry>
        </mxCell>
        <mxCell id="BLyfXcpBKMJjdkIK_ONK-55" value="CustomHorizontalFusePass" style="swimlane;fontStyle=0;align=center;verticalAlign=top;childLayout=stackLayout;horizontal=1;startSize=26;horizontalStack=0;resizeParent=1;resizeLast=0;collapsible=1;marginBottom=0;rounded=0;shadow=0;strokeWidth=1;fillColor=#f8cecc;strokeColor=#b85450;fontSize=20;" parent="WIyWlLk6GJQsqaUBKTNV-1" vertex="1">
          <mxGeometry x="756.5" y="610" width="330" height="90" as="geometry">
            <mxRectangle x="130" y="380" width="160" height="26" as="alternateBounds" />
          </mxGeometry>
        </mxCell>
        <mxCell id="BLyfXcpBKMJjdkIK_ONK-56" value="" style="line;html=1;strokeWidth=1;align=left;verticalAlign=middle;spacingTop=-1;spacingLeft=3;spacingRight=3;rotatable=0;labelPosition=right;points=[];portConstraint=eastwest;fillColor=#f8cecc;strokeColor=#b85450;" parent="BLyfXcpBKMJjdkIK_ONK-55" vertex="1">
          <mxGeometry y="26" width="330" height="8" as="geometry" />
        </mxCell>
        <mxCell id="BLyfXcpBKMJjdkIK_ONK-57" value="operator(LightwareFusePassCtx* ctx): void" style="text;align=left;verticalAlign=top;spacingLeft=4;spacingRight=4;overflow=hidden;rotatable=0;points=[[0,0.5],[1,0.5]];portConstraint=eastwest;fontStyle=0;fillColor=#f8cecc;strokeColor=#b85450;" parent="BLyfXcpBKMJjdkIK_ONK-55" vertex="1">
          <mxGeometry y="34" width="330" height="26" as="geometry" />
        </mxCell>
        <mxCell id="BLyfXcpBKMJjdkIK_ONK-58" value="Benefit(): int" style="text;align=left;verticalAlign=top;spacingLeft=4;spacingRight=4;overflow=hidden;rotatable=0;points=[[0,0.5],[1,0.5]];portConstraint=eastwest;fontStyle=0;fillColor=#f8cecc;strokeColor=#b85450;" parent="BLyfXcpBKMJjdkIK_ONK-55" vertex="1">
          <mxGeometry y="60" width="330" height="26" as="geometry" />
        </mxCell>
        <mxCell id="BLyfXcpBKMJjdkIK_ONK-96" style="edgeStyle=orthogonalEdgeStyle;rounded=0;orthogonalLoop=1;jettySize=auto;html=1;exitX=0.5;exitY=0;exitDx=0;exitDy=0;entryX=0.5;entryY=1;entryDx=0;entryDy=0;endSize=10;endArrow=block;endFill=0;fillColor=#d5e8d4;strokeColor=#82b366;" parent="WIyWlLk6GJQsqaUBKTNV-1" source="BLyfXcpBKMJjdkIK_ONK-63" target="BLyfXcpBKMJjdkIK_ONK-31" edge="1">
          <mxGeometry relative="1" as="geometry" />
        </mxCell>
        <mxCell id="BLyfXcpBKMJjdkIK_ONK-63" value="VerticalFusePass" style="swimlane;fontStyle=2;align=center;verticalAlign=top;childLayout=stackLayout;horizontal=1;startSize=26;horizontalStack=0;resizeParent=1;resizeLast=0;collapsible=1;marginBottom=0;rounded=0;shadow=0;strokeWidth=1;fillColor=#d5e8d4;strokeColor=#82b366;fontSize=20;" parent="WIyWlLk6GJQsqaUBKTNV-1" vertex="1">
          <mxGeometry x="1320" y="390" width="260" height="120" as="geometry">
            <mxRectangle x="130" y="380" width="160" height="26" as="alternateBounds" />
          </mxGeometry>
        </mxCell>
        <mxCell id="BLyfXcpBKMJjdkIK_ONK-64" value="" style="line;html=1;strokeWidth=1;align=left;verticalAlign=middle;spacingTop=-1;spacingLeft=3;spacingRight=3;rotatable=0;labelPosition=right;points=[];portConstraint=eastwest;fillColor=#d5e8d4;strokeColor=#82b366;" parent="BLyfXcpBKMJjdkIK_ONK-63" vertex="1">
          <mxGeometry y="26" width="260" height="8" as="geometry" />
        </mxCell>
        <mxCell id="BLyfXcpBKMJjdkIK_ONK-65" value="operator(LightwareFusePassCtx* ctx): void" style="text;align=left;verticalAlign=top;spacingLeft=4;spacingRight=4;overflow=hidden;rotatable=0;points=[[0,0.5],[1,0.5]];portConstraint=eastwest;fontStyle=2;fillColor=#d5e8d4;strokeColor=#82b366;" parent="BLyfXcpBKMJjdkIK_ONK-63" vertex="1">
          <mxGeometry y="34" width="260" height="26" as="geometry" />
        </mxCell>
        <mxCell id="BLyfXcpBKMJjdkIK_ONK-66" value="Benefit(): int" style="text;align=left;verticalAlign=top;spacingLeft=4;spacingRight=4;overflow=hidden;rotatable=0;points=[[0,0.5],[1,0.5]];portConstraint=eastwest;fontStyle=2;fillColor=#d5e8d4;strokeColor=#82b366;" parent="BLyfXcpBKMJjdkIK_ONK-63" vertex="1">
          <mxGeometry y="60" width="260" height="26" as="geometry" />
        </mxCell>
        <mxCell id="BLyfXcpBKMJjdkIK_ONK-67" value="FuseMode(): string" style="text;align=left;verticalAlign=top;spacingLeft=4;spacingRight=4;overflow=hidden;rotatable=0;points=[[0,0.5],[1,0.5]];portConstraint=eastwest;fontStyle=0;fillColor=#d5e8d4;strokeColor=#82b366;" parent="BLyfXcpBKMJjdkIK_ONK-63" vertex="1">
          <mxGeometry y="86" width="260" height="26" as="geometry" />
        </mxCell>
        <mxCell id="BLyfXcpBKMJjdkIK_ONK-68" style="edgeStyle=orthogonalEdgeStyle;rounded=0;orthogonalLoop=1;jettySize=auto;html=1;exitX=0.5;exitY=0;exitDx=0;exitDy=0;entryX=0.5;entryY=1;entryDx=0;entryDy=0;endArrow=block;endFill=0;endSize=10;" parent="WIyWlLk6GJQsqaUBKTNV-1" source="BLyfXcpBKMJjdkIK_ONK-69" target="BLyfXcpBKMJjdkIK_ONK-63" edge="1">
          <mxGeometry relative="1" as="geometry" />
        </mxCell>
        <mxCell id="BLyfXcpBKMJjdkIK_ONK-69" value="DefaultVerticalFusePass" style="swimlane;fontStyle=0;align=center;verticalAlign=top;childLayout=stackLayout;horizontal=1;startSize=26;horizontalStack=0;resizeParent=1;resizeLast=0;collapsible=1;marginBottom=0;rounded=0;shadow=0;strokeWidth=1;fillColor=#d5e8d4;strokeColor=#82b366;fontSize=20;" parent="WIyWlLk6GJQsqaUBKTNV-1" vertex="1">
          <mxGeometry x="1132.5" y="610" width="290" height="90" as="geometry">
            <mxRectangle x="130" y="380" width="160" height="26" as="alternateBounds" />
          </mxGeometry>
        </mxCell>
        <mxCell id="BLyfXcpBKMJjdkIK_ONK-70" value="" style="line;html=1;strokeWidth=1;align=left;verticalAlign=middle;spacingTop=-1;spacingLeft=3;spacingRight=3;rotatable=0;labelPosition=right;points=[];portConstraint=eastwest;fillColor=#d5e8d4;strokeColor=#82b366;" parent="BLyfXcpBKMJjdkIK_ONK-69" vertex="1">
          <mxGeometry y="26" width="290" height="8" as="geometry" />
        </mxCell>
        <mxCell id="BLyfXcpBKMJjdkIK_ONK-71" value="operator(LightwareFusePassCtx* ctx): void" style="text;align=left;verticalAlign=top;spacingLeft=4;spacingRight=4;overflow=hidden;rotatable=0;points=[[0,0.5],[1,0.5]];portConstraint=eastwest;fontStyle=0;fillColor=#d5e8d4;strokeColor=#82b366;" parent="BLyfXcpBKMJjdkIK_ONK-69" vertex="1">
          <mxGeometry y="34" width="290" height="26" as="geometry" />
        </mxCell>
        <mxCell id="BLyfXcpBKMJjdkIK_ONK-72" value="Benefit(): int" style="text;align=left;verticalAlign=top;spacingLeft=4;spacingRight=4;overflow=hidden;rotatable=0;points=[[0,0.5],[1,0.5]];portConstraint=eastwest;fontStyle=0;fillColor=#d5e8d4;strokeColor=#82b366;" parent="BLyfXcpBKMJjdkIK_ONK-69" vertex="1">
          <mxGeometry y="60" width="290" height="26" as="geometry" />
        </mxCell>
        <mxCell id="BLyfXcpBKMJjdkIK_ONK-73" style="edgeStyle=orthogonalEdgeStyle;rounded=0;orthogonalLoop=1;jettySize=auto;html=1;exitX=0.5;exitY=0;exitDx=0;exitDy=0;endSize=10;endArrow=block;endFill=0;entryX=0.5;entryY=1;entryDx=0;entryDy=0;" parent="WIyWlLk6GJQsqaUBKTNV-1" source="BLyfXcpBKMJjdkIK_ONK-74" target="BLyfXcpBKMJjdkIK_ONK-63" edge="1">
          <mxGeometry relative="1" as="geometry">
            <mxPoint x="1540" y="550" as="targetPoint" />
          </mxGeometry>
        </mxCell>
        <mxCell id="BLyfXcpBKMJjdkIK_ONK-74" value="CustomVerticalFusePass" style="swimlane;fontStyle=0;align=center;verticalAlign=top;childLayout=stackLayout;horizontal=1;startSize=26;horizontalStack=0;resizeParent=1;resizeLast=0;collapsible=1;marginBottom=0;rounded=0;shadow=0;strokeWidth=1;fillColor=#f8cecc;strokeColor=#b85450;fontSize=20;" parent="WIyWlLk6GJQsqaUBKTNV-1" vertex="1">
          <mxGeometry x="1460" y="610" width="290" height="90" as="geometry">
            <mxRectangle x="130" y="380" width="160" height="26" as="alternateBounds" />
          </mxGeometry>
        </mxCell>
        <mxCell id="BLyfXcpBKMJjdkIK_ONK-75" value="" style="line;html=1;strokeWidth=1;align=left;verticalAlign=middle;spacingTop=-1;spacingLeft=3;spacingRight=3;rotatable=0;labelPosition=right;points=[];portConstraint=eastwest;fillColor=#f8cecc;strokeColor=#b85450;" parent="BLyfXcpBKMJjdkIK_ONK-74" vertex="1">
          <mxGeometry y="26" width="290" height="8" as="geometry" />
        </mxCell>
        <mxCell id="BLyfXcpBKMJjdkIK_ONK-76" value="operator(LightwareFusePassCtx* ctx): void" style="text;align=left;verticalAlign=top;spacingLeft=4;spacingRight=4;overflow=hidden;rotatable=0;points=[[0,0.5],[1,0.5]];portConstraint=eastwest;fontStyle=0;fillColor=#f8cecc;strokeColor=#b85450;" parent="BLyfXcpBKMJjdkIK_ONK-74" vertex="1">
          <mxGeometry y="34" width="290" height="26" as="geometry" />
        </mxCell>
        <mxCell id="BLyfXcpBKMJjdkIK_ONK-77" value="Benefit(): int" style="text;align=left;verticalAlign=top;spacingLeft=4;spacingRight=4;overflow=hidden;rotatable=0;points=[[0,0.5],[1,0.5]];portConstraint=eastwest;fontStyle=0;fillColor=#f8cecc;strokeColor=#b85450;" parent="BLyfXcpBKMJjdkIK_ONK-74" vertex="1">
          <mxGeometry y="60" width="290" height="26" as="geometry" />
        </mxCell>
        <mxCell id="BLyfXcpBKMJjdkIK_ONK-95" style="edgeStyle=orthogonalEdgeStyle;rounded=0;orthogonalLoop=1;jettySize=auto;html=1;exitX=0.5;exitY=0;exitDx=0;exitDy=0;entryX=0.5;entryY=1;entryDx=0;entryDy=0;endSize=10;endArrow=block;endFill=0;" parent="WIyWlLk6GJQsqaUBKTNV-1" source="BLyfXcpBKMJjdkIK_ONK-79" target="BLyfXcpBKMJjdkIK_ONK-31" edge="1">
          <mxGeometry relative="1" as="geometry" />
        </mxCell>
        <mxCell id="BLyfXcpBKMJjdkIK_ONK-79" value="RecomputeFusePass" style="swimlane;fontStyle=2;align=center;verticalAlign=top;childLayout=stackLayout;horizontal=1;startSize=26;horizontalStack=0;resizeParent=1;resizeLast=0;collapsible=1;marginBottom=0;rounded=0;shadow=0;strokeWidth=1;fillColor=#d5e8d4;strokeColor=#82b366;fontSize=20;" parent="WIyWlLk6GJQsqaUBKTNV-1" vertex="1">
          <mxGeometry x="1820" y="390" width="260" height="120" as="geometry">
            <mxRectangle x="130" y="380" width="160" height="26" as="alternateBounds" />
          </mxGeometry>
        </mxCell>
        <mxCell id="BLyfXcpBKMJjdkIK_ONK-80" value="" style="line;html=1;strokeWidth=1;align=left;verticalAlign=middle;spacingTop=-1;spacingLeft=3;spacingRight=3;rotatable=0;labelPosition=right;points=[];portConstraint=eastwest;fillColor=#d5e8d4;strokeColor=#82b366;" parent="BLyfXcpBKMJjdkIK_ONK-79" vertex="1">
          <mxGeometry y="26" width="260" height="8" as="geometry" />
        </mxCell>
        <mxCell id="BLyfXcpBKMJjdkIK_ONK-81" value="operator(LightwareFusePassCtx* ctx): void" style="text;align=left;verticalAlign=top;spacingLeft=4;spacingRight=4;overflow=hidden;rotatable=0;points=[[0,0.5],[1,0.5]];portConstraint=eastwest;fontStyle=2;fillColor=#d5e8d4;strokeColor=#82b366;" parent="BLyfXcpBKMJjdkIK_ONK-79" vertex="1">
          <mxGeometry y="34" width="260" height="26" as="geometry" />
        </mxCell>
        <mxCell id="BLyfXcpBKMJjdkIK_ONK-82" value="Benefit(): int" style="text;align=left;verticalAlign=top;spacingLeft=4;spacingRight=4;overflow=hidden;rotatable=0;points=[[0,0.5],[1,0.5]];portConstraint=eastwest;fontStyle=2;fillColor=#d5e8d4;strokeColor=#82b366;" parent="BLyfXcpBKMJjdkIK_ONK-79" vertex="1">
          <mxGeometry y="60" width="260" height="26" as="geometry" />
        </mxCell>
        <mxCell id="BLyfXcpBKMJjdkIK_ONK-83" value="FuseMode(): string" style="text;align=left;verticalAlign=top;spacingLeft=4;spacingRight=4;overflow=hidden;rotatable=0;points=[[0,0.5],[1,0.5]];portConstraint=eastwest;fontStyle=0;fillColor=#d5e8d4;strokeColor=#82b366;" parent="BLyfXcpBKMJjdkIK_ONK-79" vertex="1">
          <mxGeometry y="86" width="260" height="26" as="geometry" />
        </mxCell>
        <mxCell id="BLyfXcpBKMJjdkIK_ONK-84" style="edgeStyle=orthogonalEdgeStyle;rounded=0;orthogonalLoop=1;jettySize=auto;html=1;exitX=0.5;exitY=0;exitDx=0;exitDy=0;entryX=0.5;entryY=1;entryDx=0;entryDy=0;endArrow=block;endFill=0;endSize=10;fillColor=#d5e8d4;strokeColor=#82b366;" parent="WIyWlLk6GJQsqaUBKTNV-1" source="BLyfXcpBKMJjdkIK_ONK-85" target="BLyfXcpBKMJjdkIK_ONK-79" edge="1">
          <mxGeometry relative="1" as="geometry" />
        </mxCell>
        <mxCell id="BLyfXcpBKMJjdkIK_ONK-85" value="DefaultRecomputeFusePass" style="swimlane;fontStyle=0;align=center;verticalAlign=top;childLayout=stackLayout;horizontal=1;startSize=26;horizontalStack=0;resizeParent=1;resizeLast=0;collapsible=1;marginBottom=0;rounded=0;shadow=0;strokeWidth=1;fillColor=#d5e8d4;strokeColor=#82b366;fontSize=20;" parent="WIyWlLk6GJQsqaUBKTNV-1" vertex="1">
          <mxGeometry x="1790" y="610" width="320" height="90" as="geometry">
            <mxRectangle x="130" y="380" width="160" height="26" as="alternateBounds" />
          </mxGeometry>
        </mxCell>
        <mxCell id="BLyfXcpBKMJjdkIK_ONK-86" value="" style="line;html=1;strokeWidth=1;align=left;verticalAlign=middle;spacingTop=-1;spacingLeft=3;spacingRight=3;rotatable=0;labelPosition=right;points=[];portConstraint=eastwest;fillColor=#d5e8d4;strokeColor=#82b366;" parent="BLyfXcpBKMJjdkIK_ONK-85" vertex="1">
          <mxGeometry y="26" width="320" height="8" as="geometry" />
        </mxCell>
        <mxCell id="BLyfXcpBKMJjdkIK_ONK-87" value="operator(LightwareFusePassCtx* ctx): void" style="text;align=left;verticalAlign=top;spacingLeft=4;spacingRight=4;overflow=hidden;rotatable=0;points=[[0,0.5],[1,0.5]];portConstraint=eastwest;fontStyle=0;fillColor=#d5e8d4;strokeColor=#82b366;" parent="BLyfXcpBKMJjdkIK_ONK-85" vertex="1">
          <mxGeometry y="34" width="320" height="26" as="geometry" />
        </mxCell>
        <mxCell id="BLyfXcpBKMJjdkIK_ONK-88" value="Benefit(): int" style="text;align=left;verticalAlign=top;spacingLeft=4;spacingRight=4;overflow=hidden;rotatable=0;points=[[0,0.5],[1,0.5]];portConstraint=eastwest;fontStyle=0;fillColor=#d5e8d4;strokeColor=#82b366;" parent="BLyfXcpBKMJjdkIK_ONK-85" vertex="1">
          <mxGeometry y="60" width="320" height="26" as="geometry" />
        </mxCell>
        <mxCell id="BLyfXcpBKMJjdkIK_ONK-89" style="edgeStyle=orthogonalEdgeStyle;rounded=0;orthogonalLoop=1;jettySize=auto;html=1;exitX=0.5;exitY=0;exitDx=0;exitDy=0;endSize=10;endArrow=block;endFill=0;entryX=0.5;entryY=1;entryDx=0;entryDy=0;" parent="WIyWlLk6GJQsqaUBKTNV-1" source="BLyfXcpBKMJjdkIK_ONK-90" target="BLyfXcpBKMJjdkIK_ONK-79" edge="1">
          <mxGeometry relative="1" as="geometry">
            <mxPoint x="2145" y="550" as="targetPoint" />
          </mxGeometry>
        </mxCell>
        <mxCell id="BLyfXcpBKMJjdkIK_ONK-90" value="CustomRecomputeFusePass" style="swimlane;fontStyle=0;align=center;verticalAlign=top;childLayout=stackLayout;horizontal=1;startSize=26;horizontalStack=0;resizeParent=1;resizeLast=0;collapsible=1;marginBottom=0;rounded=0;shadow=0;strokeWidth=1;fillColor=#f8cecc;strokeColor=#b85450;fontSize=20;" parent="WIyWlLk6GJQsqaUBKTNV-1" vertex="1">
          <mxGeometry x="2141" y="610" width="340" height="90" as="geometry">
            <mxRectangle x="130" y="380" width="160" height="26" as="alternateBounds" />
          </mxGeometry>
        </mxCell>
        <mxCell id="BLyfXcpBKMJjdkIK_ONK-91" value="" style="line;html=1;strokeWidth=1;align=left;verticalAlign=middle;spacingTop=-1;spacingLeft=3;spacingRight=3;rotatable=0;labelPosition=right;points=[];portConstraint=eastwest;" parent="BLyfXcpBKMJjdkIK_ONK-90" vertex="1">
          <mxGeometry y="26" width="340" height="8" as="geometry" />
        </mxCell>
        <mxCell id="BLyfXcpBKMJjdkIK_ONK-92" value="operator(LightwareFusePassCtx* ctx): void" style="text;align=left;verticalAlign=top;spacingLeft=4;spacingRight=4;overflow=hidden;rotatable=0;points=[[0,0.5],[1,0.5]];portConstraint=eastwest;fontStyle=0;fillColor=#f8cecc;strokeColor=#b85450;" parent="BLyfXcpBKMJjdkIK_ONK-90" vertex="1">
          <mxGeometry y="34" width="340" height="26" as="geometry" />
        </mxCell>
        <mxCell id="BLyfXcpBKMJjdkIK_ONK-93" value="Benefit(): int" style="text;align=left;verticalAlign=top;spacingLeft=4;spacingRight=4;overflow=hidden;rotatable=0;points=[[0,0.5],[1,0.5]];portConstraint=eastwest;fontStyle=0;fillColor=#f8cecc;strokeColor=#b85450;" parent="BLyfXcpBKMJjdkIK_ONK-90" vertex="1">
          <mxGeometry y="60" width="340" height="26" as="geometry" />
        </mxCell>
        <mxCell id="BLyfXcpBKMJjdkIK_ONK-97" value="FusePassCtx" style="swimlane;fontStyle=2;align=center;verticalAlign=top;childLayout=stackLayout;horizontal=1;startSize=26;horizontalStack=0;resizeParent=1;resizeLast=0;collapsible=1;marginBottom=0;rounded=0;shadow=0;strokeWidth=1;fillColor=#d5e8d4;strokeColor=#82b366;fontSize=20;" parent="WIyWlLk6GJQsqaUBKTNV-1" vertex="1">
          <mxGeometry x="1240" y="-520" width="260" height="90" as="geometry">
            <mxRectangle x="230" y="140" width="160" height="26" as="alternateBounds" />
          </mxGeometry>
        </mxCell>
        <mxCell id="BLyfXcpBKMJjdkIK_ONK-98" value="" style="line;html=1;strokeWidth=1;align=left;verticalAlign=middle;spacingTop=-1;spacingLeft=3;spacingRight=3;rotatable=0;labelPosition=right;points=[];portConstraint=eastwest;fillColor=#d5e8d4;strokeColor=#82b366;" parent="BLyfXcpBKMJjdkIK_ONK-97" vertex="1">
          <mxGeometry y="26" width="260" height="8" as="geometry" />
        </mxCell>
        <mxCell id="BLyfXcpBKMJjdkIK_ONK-99" value="fuse_helper(): FuseHelper" style="text;align=left;verticalAlign=top;spacingLeft=4;spacingRight=4;overflow=hidden;rotatable=0;points=[[0,0.5],[1,0.5]];portConstraint=eastwest;fontStyle=2;fillColor=#d5e8d4;strokeColor=#82b366;" parent="BLyfXcpBKMJjdkIK_ONK-97" vertex="1">
          <mxGeometry y="34" width="260" height="26" as="geometry" />
        </mxCell>
        <mxCell id="BLyfXcpBKMJjdkIK_ONK-100" value="EnableFuse(...): void" style="text;align=left;verticalAlign=top;spacingLeft=4;spacingRight=4;overflow=hidden;rotatable=0;points=[[0,0.5],[1,0.5]];portConstraint=eastwest;fontStyle=2;fillColor=#d5e8d4;strokeColor=#82b366;" parent="BLyfXcpBKMJjdkIK_ONK-97" vertex="1">
          <mxGeometry y="60" width="260" height="26" as="geometry" />
        </mxCell>
        <mxCell id="BLyfXcpBKMJjdkIK_ONK-133" style="edgeStyle=orthogonalEdgeStyle;rounded=0;orthogonalLoop=1;jettySize=auto;html=1;exitX=0.5;exitY=0;exitDx=0;exitDy=0;entryX=0.5;entryY=1;entryDx=0;entryDy=0;endSize=10;endArrow=block;endFill=0;fillColor=#d5e8d4;strokeColor=#82b366;" parent="WIyWlLk6GJQsqaUBKTNV-1" source="BLyfXcpBKMJjdkIK_ONK-101" target="BLyfXcpBKMJjdkIK_ONK-97" edge="1">
          <mxGeometry relative="1" as="geometry" />
        </mxCell>
        <mxCell id="BLyfXcpBKMJjdkIK_ONK-101" value="LightwareFusePassCtx" style="swimlane;fontStyle=2;align=center;verticalAlign=top;childLayout=stackLayout;horizontal=1;startSize=26;horizontalStack=0;resizeParent=1;resizeLast=0;collapsible=1;marginBottom=0;rounded=0;shadow=0;strokeWidth=1;fillColor=#d5e8d4;strokeColor=#82b366;fontSize=20;" parent="WIyWlLk6GJQsqaUBKTNV-1" vertex="1">
          <mxGeometry x="1230" y="-360" width="280" height="112" as="geometry">
            <mxRectangle x="230" y="140" width="160" height="26" as="alternateBounds" />
          </mxGeometry>
        </mxCell>
        <mxCell id="BLyfXcpBKMJjdkIK_ONK-102" value="" style="line;html=1;strokeWidth=1;align=left;verticalAlign=middle;spacingTop=-1;spacingLeft=3;spacingRight=3;rotatable=0;labelPosition=right;points=[];portConstraint=eastwest;fillColor=#d5e8d4;strokeColor=#82b366;" parent="BLyfXcpBKMJjdkIK_ONK-101" vertex="1">
          <mxGeometry y="26" width="280" height="8" as="geometry" />
        </mxCell>
        <mxCell id="BLyfXcpBKMJjdkIK_ONK-103" value="fuse_helper(): FuseHelper" style="text;align=left;verticalAlign=top;spacingLeft=4;spacingRight=4;overflow=hidden;rotatable=0;points=[[0,0.5],[1,0.5]];portConstraint=eastwest;fontStyle=2;fillColor=#d5e8d4;strokeColor=#82b366;" parent="BLyfXcpBKMJjdkIK_ONK-101" vertex="1">
          <mxGeometry y="34" width="280" height="26" as="geometry" />
        </mxCell>
        <mxCell id="BLyfXcpBKMJjdkIK_ONK-104" value="EnableFuse(...): void" style="text;align=left;verticalAlign=top;spacingLeft=4;spacingRight=4;overflow=hidden;rotatable=0;points=[[0,0.5],[1,0.5]];portConstraint=eastwest;fontStyle=2;fillColor=#d5e8d4;strokeColor=#82b366;" parent="BLyfXcpBKMJjdkIK_ONK-101" vertex="1">
          <mxGeometry y="60" width="280" height="26" as="geometry" />
        </mxCell>
        <mxCell id="BLyfXcpBKMJjdkIK_ONK-105" value="PickOpGroup(): OpGroupPtr" style="text;align=left;verticalAlign=top;spacingLeft=4;spacingRight=4;overflow=hidden;rotatable=0;points=[[0,0.5],[1,0.5]];portConstraint=eastwest;fontStyle=2;fillColor=#d5e8d4;strokeColor=#82b366;" parent="BLyfXcpBKMJjdkIK_ONK-101" vertex="1">
          <mxGeometry y="86" width="280" height="26" as="geometry" />
        </mxCell>
        <mxCell id="BLyfXcpBKMJjdkIK_ONK-139" style="edgeStyle=orthogonalEdgeStyle;rounded=0;orthogonalLoop=1;jettySize=auto;html=1;exitX=0.5;exitY=0;exitDx=0;exitDy=0;endArrow=block;endFill=0;endSize=10;fillColor=#d5e8d4;strokeColor=#82b366;" parent="WIyWlLk6GJQsqaUBKTNV-1" source="BLyfXcpBKMJjdkIK_ONK-106" target="BLyfXcpBKMJjdkIK_ONK-101" edge="1">
          <mxGeometry relative="1" as="geometry" />
        </mxCell>
        <mxCell id="BLyfXcpBKMJjdkIK_ONK-106" value="GraphGroupLightwareFusePassCtx" style="swimlane;fontStyle=2;align=center;verticalAlign=top;childLayout=stackLayout;horizontal=1;startSize=26;horizontalStack=0;resizeParent=1;resizeLast=0;collapsible=1;marginBottom=0;rounded=0;shadow=0;strokeWidth=1;fillColor=#d5e8d4;strokeColor=#82b366;fontSize=20;" parent="WIyWlLk6GJQsqaUBKTNV-1" vertex="1">
          <mxGeometry x="1190" y="-180" width="360" height="112" as="geometry">
            <mxRectangle x="230" y="140" width="160" height="26" as="alternateBounds" />
          </mxGeometry>
        </mxCell>
        <mxCell id="BLyfXcpBKMJjdkIK_ONK-107" value="" style="line;html=1;strokeWidth=1;align=left;verticalAlign=middle;spacingTop=-1;spacingLeft=3;spacingRight=3;rotatable=0;labelPosition=right;points=[];portConstraint=eastwest;fillColor=#d5e8d4;strokeColor=#82b366;" parent="BLyfXcpBKMJjdkIK_ONK-106" vertex="1">
          <mxGeometry y="26" width="360" height="8" as="geometry" />
        </mxCell>
        <mxCell id="BLyfXcpBKMJjdkIK_ONK-108" value="fuse_helper(): FuseHelper" style="text;align=left;verticalAlign=top;spacingLeft=4;spacingRight=4;overflow=hidden;rotatable=0;points=[[0,0.5],[1,0.5]];portConstraint=eastwest;fontStyle=2;fillColor=#d5e8d4;strokeColor=#82b366;" parent="BLyfXcpBKMJjdkIK_ONK-106" vertex="1">
          <mxGeometry y="34" width="360" height="26" as="geometry" />
        </mxCell>
        <mxCell id="BLyfXcpBKMJjdkIK_ONK-109" value="EnableFuse(...): void" style="text;align=left;verticalAlign=top;spacingLeft=4;spacingRight=4;overflow=hidden;rotatable=0;points=[[0,0.5],[1,0.5]];portConstraint=eastwest;fontStyle=2;fillColor=#d5e8d4;strokeColor=#82b366;" parent="BLyfXcpBKMJjdkIK_ONK-106" vertex="1">
          <mxGeometry y="60" width="360" height="26" as="geometry" />
        </mxCell>
        <mxCell id="BLyfXcpBKMJjdkIK_ONK-110" value="PickOpGroup(): OpGroupPtr" style="text;align=left;verticalAlign=top;spacingLeft=4;spacingRight=4;overflow=hidden;rotatable=0;points=[[0,0.5],[1,0.5]];portConstraint=eastwest;fontStyle=2;fillColor=#d5e8d4;strokeColor=#82b366;" parent="BLyfXcpBKMJjdkIK_ONK-106" vertex="1">
          <mxGeometry y="86" width="360" height="26" as="geometry" />
        </mxCell>
        <mxCell id="BLyfXcpBKMJjdkIK_ONK-135" style="edgeStyle=orthogonalEdgeStyle;rounded=0;orthogonalLoop=1;jettySize=auto;html=1;exitX=0.5;exitY=0;exitDx=0;exitDy=0;entryX=0.5;entryY=1;entryDx=0;entryDy=0;endSize=10;endArrow=block;endFill=0;" parent="WIyWlLk6GJQsqaUBKTNV-1" source="BLyfXcpBKMJjdkIK_ONK-111" target="BLyfXcpBKMJjdkIK_ONK-97" edge="1">
          <mxGeometry relative="1" as="geometry" />
        </mxCell>
        <mxCell id="BLyfXcpBKMJjdkIK_ONK-111" value="InputFusePassCtx" style="swimlane;fontStyle=2;align=center;verticalAlign=top;childLayout=stackLayout;horizontal=1;startSize=26;horizontalStack=0;resizeParent=1;resizeLast=0;collapsible=1;marginBottom=0;rounded=0;shadow=0;strokeWidth=1;fillColor=#d5e8d4;strokeColor=#82b366;fontSize=20;" parent="WIyWlLk6GJQsqaUBKTNV-1" vertex="1">
          <mxGeometry x="545" y="-360" width="370" height="112" as="geometry">
            <mxRectangle x="230" y="140" width="160" height="26" as="alternateBounds" />
          </mxGeometry>
        </mxCell>
        <mxCell id="BLyfXcpBKMJjdkIK_ONK-112" value="" style="line;html=1;strokeWidth=1;align=left;verticalAlign=middle;spacingTop=-1;spacingLeft=3;spacingRight=3;rotatable=0;labelPosition=right;points=[];portConstraint=eastwest;fillColor=#d5e8d4;strokeColor=#82b366;" parent="BLyfXcpBKMJjdkIK_ONK-111" vertex="1">
          <mxGeometry y="26" width="370" height="8" as="geometry" />
        </mxCell>
        <mxCell id="BLyfXcpBKMJjdkIK_ONK-113" value="fuse_helper(): FuseHelper" style="text;align=left;verticalAlign=top;spacingLeft=4;spacingRight=4;overflow=hidden;rotatable=0;points=[[0,0.5],[1,0.5]];portConstraint=eastwest;fontStyle=2;fillColor=#d5e8d4;strokeColor=#82b366;" parent="BLyfXcpBKMJjdkIK_ONK-111" vertex="1">
          <mxGeometry y="34" width="370" height="26" as="geometry" />
        </mxCell>
        <mxCell id="BLyfXcpBKMJjdkIK_ONK-114" value="EnableFuse(...): void" style="text;align=left;verticalAlign=top;spacingLeft=4;spacingRight=4;overflow=hidden;rotatable=0;points=[[0,0.5],[1,0.5]];portConstraint=eastwest;fontStyle=2;fillColor=#d5e8d4;strokeColor=#82b366;" parent="BLyfXcpBKMJjdkIK_ONK-111" vertex="1">
          <mxGeometry y="60" width="370" height="26" as="geometry" />
        </mxCell>
        <mxCell id="BLyfXcpBKMJjdkIK_ONK-115" value="PickConsumersWithSameInputs(): std::unordered_set&lt;GroupPtr&gt;" style="text;align=left;verticalAlign=top;spacingLeft=4;spacingRight=4;overflow=hidden;rotatable=0;points=[[0,0.5],[1,0.5]];portConstraint=eastwest;fontStyle=2;fillColor=#d5e8d4;strokeColor=#82b366;" parent="BLyfXcpBKMJjdkIK_ONK-111" vertex="1">
          <mxGeometry y="86" width="370" height="26" as="geometry" />
        </mxCell>
        <mxCell id="BLyfXcpBKMJjdkIK_ONK-141" style="edgeStyle=orthogonalEdgeStyle;rounded=0;orthogonalLoop=1;jettySize=auto;html=1;exitX=0.5;exitY=0;exitDx=0;exitDy=0;endSize=10;endArrow=block;endFill=0;fillColor=#d5e8d4;strokeColor=#82b366;" parent="WIyWlLk6GJQsqaUBKTNV-1" source="BLyfXcpBKMJjdkIK_ONK-116" target="BLyfXcpBKMJjdkIK_ONK-111" edge="1">
          <mxGeometry relative="1" as="geometry" />
        </mxCell>
        <mxCell id="BLyfXcpBKMJjdkIK_ONK-116" value="GraphGroupInputFusePassCtx" style="swimlane;fontStyle=2;align=center;verticalAlign=top;childLayout=stackLayout;horizontal=1;startSize=26;horizontalStack=0;resizeParent=1;resizeLast=0;collapsible=1;marginBottom=0;rounded=0;shadow=0;strokeWidth=1;fillColor=#d5e8d4;strokeColor=#82b366;fontSize=20;" parent="WIyWlLk6GJQsqaUBKTNV-1" vertex="1">
          <mxGeometry x="540" y="-180" width="380" height="112" as="geometry">
            <mxRectangle x="230" y="140" width="160" height="26" as="alternateBounds" />
          </mxGeometry>
        </mxCell>
        <mxCell id="BLyfXcpBKMJjdkIK_ONK-117" value="" style="line;html=1;strokeWidth=1;align=left;verticalAlign=middle;spacingTop=-1;spacingLeft=3;spacingRight=3;rotatable=0;labelPosition=right;points=[];portConstraint=eastwest;fillColor=#d5e8d4;strokeColor=#82b366;" parent="BLyfXcpBKMJjdkIK_ONK-116" vertex="1">
          <mxGeometry y="26" width="380" height="8" as="geometry" />
        </mxCell>
        <mxCell id="BLyfXcpBKMJjdkIK_ONK-118" value="fuse_helper(): FuseHelper" style="text;align=left;verticalAlign=top;spacingLeft=4;spacingRight=4;overflow=hidden;rotatable=0;points=[[0,0.5],[1,0.5]];portConstraint=eastwest;fontStyle=2;fillColor=#d5e8d4;strokeColor=#82b366;" parent="BLyfXcpBKMJjdkIK_ONK-116" vertex="1">
          <mxGeometry y="34" width="380" height="26" as="geometry" />
        </mxCell>
        <mxCell id="BLyfXcpBKMJjdkIK_ONK-119" value="EnableFuse(...): void" style="text;align=left;verticalAlign=top;spacingLeft=4;spacingRight=4;overflow=hidden;rotatable=0;points=[[0,0.5],[1,0.5]];portConstraint=eastwest;fontStyle=2;fillColor=#d5e8d4;strokeColor=#82b366;" parent="BLyfXcpBKMJjdkIK_ONK-116" vertex="1">
          <mxGeometry y="60" width="380" height="26" as="geometry" />
        </mxCell>
        <mxCell id="BLyfXcpBKMJjdkIK_ONK-120" value="PickConsumersWithSameInputs(): std::unordered_set&lt;GroupPtr&gt;" style="text;align=left;verticalAlign=top;spacingLeft=4;spacingRight=4;overflow=hidden;rotatable=0;points=[[0,0.5],[1,0.5]];portConstraint=eastwest;fontStyle=2;fillColor=#d5e8d4;strokeColor=#82b366;" parent="BLyfXcpBKMJjdkIK_ONK-116" vertex="1">
          <mxGeometry y="86" width="380" height="26" as="geometry" />
        </mxCell>
        <mxCell id="BLyfXcpBKMJjdkIK_ONK-134" style="edgeStyle=orthogonalEdgeStyle;rounded=0;orthogonalLoop=1;jettySize=auto;html=1;exitX=0.5;exitY=0;exitDx=0;exitDy=0;entryX=0.5;entryY=1;entryDx=0;entryDy=0;endSize=10;endArrow=block;endFill=0;" parent="WIyWlLk6GJQsqaUBKTNV-1" source="BLyfXcpBKMJjdkIK_ONK-127" target="BLyfXcpBKMJjdkIK_ONK-97" edge="1">
          <mxGeometry relative="1" as="geometry" />
        </mxCell>
        <mxCell id="BLyfXcpBKMJjdkIK_ONK-127" value="HeavyFusePassCtx" style="swimlane;fontStyle=2;align=center;verticalAlign=top;childLayout=stackLayout;horizontal=1;startSize=26;horizontalStack=0;resizeParent=1;resizeLast=0;collapsible=1;marginBottom=0;rounded=0;shadow=0;strokeWidth=1;fillColor=#e1d5e7;strokeColor=#9673a6;fontSize=20;" parent="WIyWlLk6GJQsqaUBKTNV-1" vertex="1">
          <mxGeometry x="1710" y="-360" width="290" height="112" as="geometry">
            <mxRectangle x="230" y="140" width="160" height="26" as="alternateBounds" />
          </mxGeometry>
        </mxCell>
        <mxCell id="BLyfXcpBKMJjdkIK_ONK-128" value="" style="line;html=1;strokeWidth=1;align=left;verticalAlign=middle;spacingTop=-1;spacingLeft=3;spacingRight=3;rotatable=0;labelPosition=right;points=[];portConstraint=eastwest;fillColor=#e1d5e7;strokeColor=#9673a6;" parent="BLyfXcpBKMJjdkIK_ONK-127" vertex="1">
          <mxGeometry y="26" width="290" height="8" as="geometry" />
        </mxCell>
        <mxCell id="BLyfXcpBKMJjdkIK_ONK-129" value="fuse_helper(): FuseHelper" style="text;align=left;verticalAlign=top;spacingLeft=4;spacingRight=4;overflow=hidden;rotatable=0;points=[[0,0.5],[1,0.5]];portConstraint=eastwest;fontStyle=2;fillColor=#e1d5e7;strokeColor=#9673a6;" parent="BLyfXcpBKMJjdkIK_ONK-127" vertex="1">
          <mxGeometry y="34" width="290" height="26" as="geometry" />
        </mxCell>
        <mxCell id="BLyfXcpBKMJjdkIK_ONK-130" value="EnableFuse(...): void" style="text;align=left;verticalAlign=top;spacingLeft=4;spacingRight=4;overflow=hidden;rotatable=0;points=[[0,0.5],[1,0.5]];portConstraint=eastwest;fontStyle=2;fillColor=#e1d5e7;strokeColor=#9673a6;" parent="BLyfXcpBKMJjdkIK_ONK-127" vertex="1">
          <mxGeometry y="60" width="290" height="26" as="geometry" />
        </mxCell>
        <mxCell id="BLyfXcpBKMJjdkIK_ONK-131" value="PickOpGroup(): OpGroupPtr" style="text;align=left;verticalAlign=top;spacingLeft=4;spacingRight=4;overflow=hidden;rotatable=0;points=[[0,0.5],[1,0.5]];portConstraint=eastwest;fontStyle=2;fillColor=#e1d5e7;strokeColor=#9673a6;" parent="BLyfXcpBKMJjdkIK_ONK-127" vertex="1">
          <mxGeometry y="86" width="290" height="26" as="geometry" />
        </mxCell>
        <mxCell id="BLyfXcpBKMJjdkIK_ONK-142" style="edgeStyle=orthogonalEdgeStyle;rounded=0;orthogonalLoop=1;jettySize=auto;html=1;exitX=0;exitY=0.5;exitDx=0;exitDy=0;entryX=0;entryY=0.5;entryDx=0;entryDy=0;dashed=1;dashPattern=8 8;endSize=10;" parent="WIyWlLk6GJQsqaUBKTNV-1" source="BLyfXcpBKMJjdkIK_ONK-3" target="BLyfXcpBKMJjdkIK_ONK-114" edge="1">
          <mxGeometry relative="1" as="geometry" />
        </mxCell>
        <mxCell id="BLyfXcpBKMJjdkIK_ONK-143" style="edgeStyle=orthogonalEdgeStyle;rounded=0;orthogonalLoop=1;jettySize=auto;html=1;exitX=0;exitY=0.5;exitDx=0;exitDy=0;entryX=0;entryY=0.5;entryDx=0;entryDy=0;dashed=1;dashPattern=8 8;endSize=10;fillColor=#d5e8d4;strokeColor=#82b366;" parent="WIyWlLk6GJQsqaUBKTNV-1" source="BLyfXcpBKMJjdkIK_ONK-34" target="BLyfXcpBKMJjdkIK_ONK-104" edge="1">
          <mxGeometry relative="1" as="geometry">
            <Array as="points">
              <mxPoint x="1120" y="263" />
              <mxPoint x="1120" y="-287" />
            </Array>
          </mxGeometry>
        </mxCell>
        <mxCell id="BLyfXcpBKMJjdkIK_ONK-144" style="edgeStyle=orthogonalEdgeStyle;rounded=0;orthogonalLoop=1;jettySize=auto;html=1;exitX=0;exitY=0.5;exitDx=0;exitDy=0;entryX=0;entryY=0.5;entryDx=0;entryDy=0;endSize=10;dashed=1;dashPattern=8 8;" parent="WIyWlLk6GJQsqaUBKTNV-1" source="BLyfXcpBKMJjdkIK_ONK-39" target="BLyfXcpBKMJjdkIK_ONK-130" edge="1">
          <mxGeometry relative="1" as="geometry">
            <Array as="points">
              <mxPoint x="1670" y="263" />
              <mxPoint x="1670" y="-287" />
            </Array>
          </mxGeometry>
        </mxCell>
        <mxCell id="BLyfXcpBKMJjdkIK_ONK-146" value="&lt;font style=&quot;font-size: 30px;&quot;&gt;FusePassContext&lt;/font&gt;" style="text;html=1;strokeColor=none;fillColor=none;align=center;verticalAlign=middle;whiteSpace=wrap;rounded=0;" parent="WIyWlLk6GJQsqaUBKTNV-1" vertex="1">
          <mxGeometry x="393.5" y="-551" width="311" height="65" as="geometry" />
        </mxCell>
        <mxCell id="BLyfXcpBKMJjdkIK_ONK-149" value="&lt;font style=&quot;font-size: 30px;&quot;&gt;FusePass&lt;/font&gt;" style="text;html=1;strokeColor=none;fillColor=none;align=center;verticalAlign=middle;whiteSpace=wrap;rounded=0;" parent="WIyWlLk6GJQsqaUBKTNV-1" vertex="1">
          <mxGeometry x="78" y="37" width="190" height="65" as="geometry" />
        </mxCell>
      </root>
    </mxGraphModel>
  </diagram>
</mxfile>
